<svg xmlns="http://www.w3.org/2000/svg" viewBox="0 0 40 40">
  <path d="M22.46,23.44l-.14-2.6a6.34,6.34,0,0,0,1.39-3.32,1,1,0,0,0,.56-1,1.09,1.09,0,0,0-.49-1V13.46h0a3.78,3.78,0,0,0-7.54,0h0v2.08a1.13,1.13,0,0,0-.45,1,1.06,1.06,0,0,0,.52,1,6.34,6.34,0,0,0,1.42,3.36l-.14,2.57L10.4,27.56v.26c1,1.37,2.66,6.26,2.66,6.26H27s1.63-4.89,2.66-6.26v-.26Z"/>
  <path d="M31.72,17.47l-.12-2.21a5.42,5.42,0,0,0,1.18-2.83.89.89,0,0,0,.48-.86.93.93,0,0,0-.42-.84V9h0A3.22,3.22,0,0,0,26.4,9h0v1.77a.94.94,0,0,0-.39.83.9.9,0,0,0,.45.85,5.39,5.39,0,0,0,1.2,2.86l-.11,2.19-3.22,1.85a7.24,7.24,0,0,1-.95,1.86l.08,1.64L30,26.55h5.61a30.87,30.87,0,0,1,2.27-5.34V21Z"/>
  <path d="M8.28,17.47l.12-2.21a5.42,5.42,0,0,1-1.18-2.83.89.89,0,0,1-.48-.86.93.93,0,0,1,.42-.84V9h0A3.22,3.22,0,0,1,13.6,9h0v1.77a.94.94,0,0,1,.39.83.9.9,0,0,1-.45.85,5.39,5.39,0,0,1-1.2,2.86l.11,2.19,3.22,1.85a7.24,7.24,0,0,0,1,1.86l-.08,1.64-6.49,3.73H4.44a30.87,30.87,0,0,0-2.27-5.34V21Z"/>
</svg>
